<svg width="46" height="46" viewBox="0 0 46 46" fill="none" xmlns="http://www.w3.org/2000/svg">
<path d="M38.9922 32.8829H35.8342C35.6186 32.8829 35.4164 32.9772 35.2817 33.1434C34.9672 33.5253 34.6303 33.8936 34.2754 34.244C32.824 35.697 31.1047 36.8548 29.2127 37.6536C27.2526 38.4815 25.1458 38.9062 23.018 38.9024C20.8662 38.9024 18.7819 38.4801 16.8233 37.6536C14.9313 36.8548 13.212 35.697 11.7606 34.244C10.3065 32.796 9.14711 31.0797 8.34651 29.1903C7.51545 27.2317 7.09768 25.1518 7.09768 23.0001C7.09768 20.8483 7.51994 18.7684 8.34651 16.8098C9.14612 14.9186 10.2961 13.2161 11.7606 11.7561C13.225 10.2962 14.9276 9.14616 16.8233 8.34655C18.7819 7.51999 20.8662 7.09772 23.018 7.09772C25.1698 7.09772 27.2541 7.5155 29.2127 8.34655C31.1084 9.14616 32.811 10.2962 34.2754 11.7561C34.6303 12.111 34.9627 12.4794 35.2817 12.8567C35.4164 13.0229 35.6231 13.1173 35.8342 13.1173H38.9922C39.2752 13.1173 39.4504 12.8028 39.2932 12.5647C35.8477 7.21003 29.8192 3.66569 22.9686 3.68366C12.2053 3.71061 3.5758 12.4479 3.68362 23.1977C3.79143 33.7768 12.4074 42.3165 23.018 42.3165C29.8506 42.3165 35.8522 38.7766 39.2932 33.4354C39.4459 33.1973 39.2752 32.8829 38.9922 32.8829ZM42.9858 22.7171L36.6113 17.6858C36.3733 17.4971 36.0274 17.6678 36.0274 17.9688V21.3829H21.9219C21.7242 21.3829 21.5625 21.5446 21.5625 21.7423V24.2579C21.5625 24.4555 21.7242 24.6173 21.9219 24.6173H36.0274V28.0313C36.0274 28.3323 36.3778 28.503 36.6113 28.3143L42.9858 23.2831C43.0287 23.2495 43.0635 23.2065 43.0873 23.1575C43.1112 23.1084 43.1237 23.0546 43.1237 23.0001C43.1237 22.9455 43.1112 22.8917 43.0873 22.8427C43.0635 22.7936 43.0287 22.7507 42.9858 22.7171Z" fill="white"/>
</svg>
