<svg width="46" height="46" viewBox="0 0 46 46" fill="none" xmlns="http://www.w3.org/2000/svg">
<path d="M23 5.75H9.58333C8.56667 5.75 7.59165 6.15387 6.87276 6.87276C6.15387 7.59165 5.75 8.56667 5.75 9.58333V36.4167C5.75 37.4333 6.15387 38.4084 6.87276 39.1272C7.59165 39.8461 8.56667 40.25 9.58333 40.25H36.4167C37.4333 40.25 38.4084 39.8461 39.1272 39.1272C39.8461 38.4084 40.25 37.4333 40.25 36.4167V23" stroke="white" stroke-width="2" stroke-linecap="round" stroke-linejoin="round"/>
<path d="M35.2188 5.0312C35.9813 4.2687 37.0154 3.84033 38.0938 3.84033C39.1721 3.84033 40.2063 4.2687 40.9688 5.0312C41.7313 5.79369 42.1596 6.82786 42.1596 7.9062C42.1596 8.98453 41.7313 10.0187 40.9688 10.7812L23.6939 28.058C23.2387 28.5128 22.6765 28.8456 22.0589 29.0259L16.5523 30.6359C16.3874 30.684 16.2126 30.6869 16.0462 30.6443C15.8798 30.6017 15.7279 30.5151 15.6064 30.3936C15.4849 30.2721 15.3983 30.1202 15.3557 29.9538C15.313 29.7874 15.3159 29.6125 15.364 29.4476L16.974 23.941C17.1552 23.324 17.4887 22.7624 17.9439 22.308L35.2188 5.0312Z" stroke="white" stroke-width="2" stroke-linecap="round" stroke-linejoin="round"/>
</svg>
